<?xml version="1.0" standalone="no"?><!DOCTYPE svg PUBLIC "-//W3C//DTD SVG 1.1//EN" "http://www.w3.org/Graphics/SVG/1.1/DTD/svg11.dtd"><svg class="icon" width="200px" height="200.00px" viewBox="0 0 1024 1024" version="1.1" xmlns="http://www.w3.org/2000/svg"><path fill="#ffffff" d="M725.3 576c-106 0-192 86-192 192s86 192 192 192 192-86 192-192-85.9-192-192-192z m0 341.3C642.9 917.3 576 850.5 576 768c0-82.5 66.9-149.3 149.3-149.3S874.7 685.5 874.7 768c0 82.5-66.9 149.3-149.4 149.3z"  /><path fill="#ffffff" d="M874.7 64H149.3c-23.5 0-42.7 19.2-42.7 42.7v810.7c0 23.5 19.2 42.7 42.7 42.7H480c11.8 0 21.3-9.6 21.3-21.3 0-11.8-9.6-21.3-21.3-21.3H170.7c-11.7 0-21.3-9.6-21.3-21.3V128c0-11.7 9.6-21.3 21.3-21.3h682.7c11.7 0 21.3 9.6 21.3 21.3v384c0 11.8 9.6 21.3 21.3 21.3s21.3-9.6 21.3-21.3V106.7c0-23.5-19.2-42.7-42.6-42.7z"  /><path fill="#ffffff" d="M298.7 320h426.7c11.7 0 21.3-9.6 21.3-21.3 0-11.7-9.6-21.3-21.3-21.3H298.7c-11.7 0-21.3 9.6-21.3 21.3-0.1 11.7 9.5 21.3 21.3 21.3zM746.7 448c0-11.7-9.6-21.3-21.3-21.3H298.7c-11.7 0-21.3 9.6-21.3 21.3s9.6 21.3 21.3 21.3h426.7c11.7 0 21.3-9.6 21.3-21.3zM298.7 576c-11.7 0-21.3 9.6-21.3 21.3 0 11.7 9.6 21.3 21.3 21.3h170.7c11.7 0 21.3-9.6 21.3-21.3 0-11.7-9.6-21.3-21.3-21.3H298.7zM803.1 737.3l-45.4-6.6-20.3-41.1c-4.6-9.2-19.7-9.2-24.3 0l-20.3 41.1-45.4 6.6c-5.1 0.7-9.3 4.3-10.9 9.2-1.6 4.9-0.3 10.3 3.4 13.9l32.8 32-7.8 45.2c-0.9 5.1 1.2 10.2 5.4 13.2 4.1 3 9.7 3.4 14.2 1l40.6-21.3 40.6 21.3c2 1 4.1 1.5 6.3 1.5 2.8 0 5.6-0.9 7.9-2.6 4.2-3 6.3-8.2 5.4-13.2l-7.8-45.2 32.8-32c3.7-3.6 5-9 3.4-13.9-1.3-4.8-5.5-8.4-10.6-9.1z m-49.3 40.6c-3.2 3.1-4.6 7.6-3.9 12l4.3 25.2-22.6-11.9c-2-1-4.1-1.5-6.3-1.5s-4.3 0.5-6.3 1.5l-22.6 11.9 4.3-25.2c0.8-4.4-0.7-8.9-3.9-12l-18.3-17.8 25.3-3.7c4.4-0.6 8.2-3.4 10.2-7.4l11.3-22.9 11.3 22.9c2 4 5.8 6.8 10.2 7.4l25.3 3.7-18.3 17.8z"  /></svg>