<?xml version="1.0" standalone="no"?><!DOCTYPE svg PUBLIC "-//W3C//DTD SVG 1.1//EN" "http://www.w3.org/Graphics/SVG/1.1/DTD/svg11.dtd"><svg class="icon" width="200px" height="200.00px" viewBox="0 0 1024 1024" version="1.1" xmlns="http://www.w3.org/2000/svg"><path fill="#ffffff" d="M937.6 377.6c12.4 0 22.4-10 22.4-22.4v-112c0-24.7-20.1-44.8-44.8-44.8H512L413.4 80.1A44.77 44.77 0 0 0 379 64H108.8C84.1 64 64 84.1 64 108.8v806.4c0 24.7 20.1 44.8 44.8 44.8h806.4c24.7 0 44.8-20.1 44.8-44.8V534.4c0-12.4-10-22.4-22.4-22.4-12.4 0-22.4 10-22.4 22.4v358.4c0 12.4-10 22.4-22.4 22.4H131.2c-12.4 0-22.4-10-22.4-22.4V131.2c0-12.4 10-22.4 22.4-22.4h235.9c6.6 0 13 3 17.2 8.1l98.6 118.3c4.3 5.1 10.6 8.1 17.2 8.1h392.7c12.4 0 22.4 10 22.4 22.4v89.6c0 12.3 10 22.3 22.4 22.3z"  /><path fill="#ffffff" d="M758.4 467.2H444.8c-12.3 0-22.4 10.1-22.4 22.4s10.1 22.4 22.4 22.4h313.6c12.3 0 22.4-10.1 22.4-22.4s-10.1-22.4-22.4-22.4zM332.8 467.2h-67.2c-12.3 0-22.4 10.1-22.4 22.4s10.1 22.4 22.4 22.4h67.2c12.3 0 22.4-10.1 22.4-22.4s-10.1-22.4-22.4-22.4zM758.4 646.4H444.8c-12.3 0-22.4 10.1-22.4 22.4 0 12.3 10.1 22.4 22.4 22.4h313.6c12.3 0 22.4-10.1 22.4-22.4 0-12.3-10.1-22.4-22.4-22.4zM332.8 646.4h-67.2c-12.3 0-22.4 10.1-22.4 22.4 0 12.3 10.1 22.4 22.4 22.4h67.2c12.3 0 22.4-10.1 22.4-22.4 0-12.3-10.1-22.4-22.4-22.4z"  /></svg>