<?xml version="1.0" standalone="no"?><!DOCTYPE svg PUBLIC "-//W3C//DTD SVG 1.1//EN" "http://www.w3.org/Graphics/SVG/1.1/DTD/svg11.dtd"><svg class="icon" width="200px" height="200.00px" viewBox="0 0 1024 1024" version="1.1" xmlns="http://www.w3.org/2000/svg"><path fill="#333333" d="M871.9 1002H152C68 1002 0 933.9 0 850V677.7c0-6.3 4-12 9.9-14.1l11.3-4c44.4-15.9 74.3-58.3 74.3-105.5s-29.9-89.6-74.3-105.5l-11.3-4c-6-2.1-9.9-7.8-9.9-14.1V258c0-84 68.1-152 152-152h438.2c18 0 33.1 14.7 32.7 32.7-0.4 17.4-14.5 31.3-32 31.3H152c-48.4 0-88 39.6-88 88v130.5c0 5.3 2.8 10.3 7.5 13 53.6 31.1 88 89 88 152.5s-34.4 121.4-88 152.5c-4.6 2.7-7.5 7.6-7.5 13V850c0 48.4 39.6 88 88 88h719.9c48.4 0 88-39.6 88-88V719.5c0-5.3-2.8-10.3-7.5-13-53.6-31.1-88-89-88-152.5 0-74.2 46.9-140.8 116.7-165.8 16.6-6 35 2.7 40.9 19.3 6 16.6-2.7 35-19.3 40.9-44.4 15.9-74.3 58.3-74.3 105.5s29.9 89.6 74.3 105.5l11.3 4c6 2.1 9.9 7.8 9.9 14.1V850c0.1 83.9-68 152-152 152z"  /><path fill="#333333" d="M357 374.3H241c-17.6 0-32-14.4-32-32s14.4-32 32-32h116c17.6 0 32 14.4 32 32s-14.4 32-32 32zM357 598.1H241c-17.6 0-32-14.4-32-32s14.4-32 32-32h116c17.6 0 32 14.4 32 32s-14.4 32-32 32zM813.2 822H241c-17.6 0-32-14.4-32-32s14.4-32 32-32h572.2c17.6 0 32 14.4 32 32s-14.4 32-32 32zM861.7 86c15.1 0 29.1 5.8 39.6 16.3l42.4 42.4c10.5 10.5 16.3 24.5 16.3 39.6 0 15.1-5.8 29.1-16.3 39.6L622.3 545.3l-126 3.8 4.3-125.2 321.6-321.6C832.6 91.8 846.7 86 861.7 86m0-64c-30.8 0-61.5 11.7-84.9 35L454.2 379.7c-10.7 10.7-17 25.2-17.5 40.4l-6.6 190.8c-0.1 2.3 1.7 4.1 4 4.1h0.1l191.6-5.8c15.3-0.5 29.8-6.7 40.6-17.5L989 269.1c46.7-46.7 46.7-123 0-169.7L946.6 57c-23.4-23.3-54.1-35-84.9-35z"  /></svg>